<svg width="366" height="110" viewBox="0 0 366 110" fill="none" xmlns="http://www.w3.org/2000/svg">
<path d="M173.768 43V32.872H180.184V43H181.368V31.8H172.584V43H173.768ZM185.45 41.768C186.17 42.712 187.161 43.192 188.442 43.192C189.578 43.192 190.522 42.792 191.242 42.008C191.962 41.224 192.33 40.264 192.33 39.128C192.33 38.008 191.962 37.048 191.242 36.264C190.522 35.48 189.578 35.08 188.442 35.08C187.161 35.08 186.17 35.56 185.45 36.504V35.272H184.298V46.2H185.45V41.768ZM185.45 37.864C185.914 36.856 187.002 36.12 188.17 36.12C189.018 36.12 189.738 36.408 190.298 36.984C190.858 37.56 191.146 38.28 191.146 39.128C191.146 39.976 190.858 40.696 190.298 41.288C189.738 41.864 189.018 42.152 188.17 42.152C187.002 42.152 185.898 41.432 185.45 40.408V37.864ZM195.077 36.28C194.293 37.064 193.909 38.024 193.909 39.144C193.909 40.264 194.293 41.224 195.077 42.008C195.861 42.792 196.853 43.192 198.085 43.192C199.317 43.192 200.309 42.792 201.093 42.008C201.877 41.224 202.261 40.264 202.261 39.144C202.261 38.024 201.877 37.064 201.093 36.28C200.309 35.48 199.317 35.08 198.085 35.08C196.853 35.08 195.861 35.48 195.077 36.28ZM201.077 39.144C201.077 39.992 200.789 40.712 200.229 41.288C199.669 41.864 198.949 42.152 198.085 42.152C197.221 42.152 196.501 41.864 195.941 41.288C195.381 40.712 195.093 39.992 195.093 39.144C195.093 38.28 195.381 37.56 195.941 36.984C196.501 36.408 197.221 36.12 198.085 36.12C198.949 36.12 199.669 36.408 200.229 36.984C200.789 37.56 201.077 38.28 201.077 39.144ZM204.237 45.288V43H211.501V45.288H212.621V41.992H211.181V35.272H205.437L205.421 36.36C205.405 38.968 204.973 40.856 204.109 41.992H203.133V45.288H204.237ZM205.389 41.992C206.141 40.792 206.509 39.048 206.509 36.744V36.28H210.029V41.992H205.389ZM217.124 42.152C215.924 42.152 215.012 41.608 215.012 40.568C215.012 39.608 215.892 39.016 217.3 39.016C218.18 39.016 219.028 39.272 219.812 39.784V40.856C219.252 41.56 218.228 42.152 217.124 42.152ZM216.804 43.192C218.1 43.192 219.14 42.744 219.924 41.832C220.052 42.664 220.628 43.064 221.38 43.064C221.732 43.064 221.988 43 222.148 42.888V41.992C222.02 42.056 221.876 42.088 221.7 42.088C221.252 42.088 220.964 41.72 220.964 41.128V37.944C220.964 36.072 219.572 35.08 217.508 35.08C216.404 35.08 215.492 35.32 214.74 35.784V36.904C215.524 36.376 216.356 36.12 217.268 36.12C218.964 36.12 219.812 36.76 219.812 38.056V38.824C218.964 38.328 218.036 38.072 217.028 38.072C216.116 38.072 215.364 38.296 214.756 38.76C214.164 39.224 213.86 39.848 213.86 40.632C213.86 41.432 214.148 42.056 214.708 42.52C215.284 42.968 215.988 43.192 216.804 43.192ZM223.488 35.272L227.12 38.856L223.12 43H224.624L228.208 39.256V43H229.36V39.256L232.944 43H234.464L230.464 38.856L234.08 35.272H232.624L229.36 38.568V35.272H228.208V38.568L224.944 35.272H223.488ZM238.593 42.152C237.393 42.152 236.481 41.608 236.481 40.568C236.481 39.608 237.361 39.016 238.769 39.016C239.649 39.016 240.497 39.272 241.281 39.784V40.856C240.721 41.56 239.697 42.152 238.593 42.152ZM238.273 43.192C239.569 43.192 240.609 42.744 241.393 41.832C241.521 42.664 242.097 43.064 242.849 43.064C243.201 43.064 243.457 43 243.617 42.888V41.992C243.489 42.056 243.345 42.088 243.169 42.088C242.721 42.088 242.433 41.72 242.433 41.128V37.944C242.433 36.072 241.041 35.08 238.977 35.08C237.873 35.08 236.961 35.32 236.209 35.784V36.904C236.993 36.376 237.825 36.12 238.737 36.12C240.433 36.12 241.281 36.76 241.281 38.056V38.824C240.433 38.328 239.505 38.072 238.497 38.072C237.585 38.072 236.833 38.296 236.225 38.76C235.633 39.224 235.329 39.848 235.329 40.632C235.329 41.432 235.617 42.056 236.177 42.52C236.753 42.968 237.457 43.192 238.273 43.192ZM250.856 43V39.56H255.608V43H256.76V35.272H255.608V38.52H250.856V35.272H249.704V43H250.856ZM263.181 43.192C264.349 43.192 265.245 42.952 265.885 42.456V41.432C265.133 41.912 264.301 42.152 263.405 42.152C261.549 42.152 260.237 41.08 260.109 39.416H266.461V39.096C266.461 37.352 265.437 35.08 262.845 35.08C261.693 35.08 260.749 35.464 260.013 36.248C259.293 37.016 258.925 37.976 258.925 39.144C258.925 40.328 259.325 41.304 260.141 42.056C260.957 42.808 261.981 43.192 263.181 43.192ZM260.125 38.472C260.173 37.832 260.445 37.288 260.909 36.824C261.389 36.36 262.013 36.12 262.797 36.12C263.613 36.12 264.221 36.36 264.621 36.856C265.037 37.336 265.261 37.88 265.293 38.472H260.125ZM268.722 45.288V43H275.986V45.288H277.106V41.992H275.666V35.272H269.922L269.906 36.36C269.89 38.968 269.458 40.856 268.594 41.992H267.618V45.288H268.722ZM269.874 41.992C270.626 40.792 270.994 39.048 270.994 36.744V36.28H274.514V41.992H269.874ZM283.337 43C284.985 43 285.913 42.2 285.913 40.92C285.913 39.88 285.417 39.224 284.441 38.936C285.081 38.632 285.401 38.072 285.401 37.24C285.401 36.072 284.553 35.272 283.065 35.272H279.001V43H283.337ZM280.153 39.512H283.097C284.137 39.512 284.745 39.976 284.745 40.76C284.745 41.544 284.137 41.992 283.097 41.992H280.153V39.512ZM280.153 36.28H282.745C283.705 36.28 284.265 36.664 284.265 37.416C284.265 38.136 283.705 38.552 282.745 38.552H280.153V36.28ZM289.307 43L294.251 36.984V43H295.403V35.272H294.331L289.387 41.304V35.272H288.235V43H289.307ZM297.598 35.272L301.23 38.856L297.23 43H298.734L302.318 39.256V43H303.47V39.256L307.054 43H308.574L304.574 38.856L308.19 35.272H306.734L303.47 38.568V35.272H302.318V38.568L299.054 35.272H297.598ZM311.479 43L316.423 36.984V43H317.575V35.272H316.503L311.559 41.304V35.272H310.407V43H311.479ZM321.418 43V36.856L324.282 40.2H324.73L327.61 36.856V43H328.73V35.272H327.61L324.506 38.856L321.418 35.272H320.298V43H321.418ZM332.062 36.28C331.278 37.064 330.894 38.024 330.894 39.144C330.894 40.264 331.278 41.224 332.062 42.008C332.846 42.792 333.838 43.192 335.07 43.192C336.302 43.192 337.294 42.792 338.078 42.008C338.862 41.224 339.246 40.264 339.246 39.144C339.246 38.024 338.862 37.064 338.078 36.28C337.294 35.48 336.302 35.08 335.07 35.08C333.838 35.08 332.846 35.48 332.062 36.28ZM338.062 39.144C338.062 39.992 337.774 40.712 337.214 41.288C336.654 41.864 335.934 42.152 335.07 42.152C334.206 42.152 333.486 41.864 332.926 41.288C332.366 40.712 332.078 39.992 332.078 39.144C332.078 38.28 332.366 37.56 332.926 36.984C333.486 36.408 334.206 36.12 335.07 36.12C335.934 36.12 336.654 36.408 337.214 36.984C337.774 37.56 338.062 38.28 338.062 39.144ZM344.943 43.192C345.887 43.192 346.719 42.968 347.439 42.536V41.48C346.751 41.928 345.983 42.152 345.119 42.152C344.239 42.152 343.487 41.864 342.895 41.304C342.303 40.728 342.015 40.008 342.015 39.144C342.015 38.264 342.303 37.544 342.895 36.984C343.487 36.408 344.239 36.12 345.119 36.12C345.871 36.12 346.591 36.312 347.295 36.712V35.64C346.639 35.272 345.855 35.08 344.959 35.08C343.791 35.08 342.799 35.464 342.015 36.248C341.231 37.016 340.831 37.976 340.831 39.128C340.831 40.296 341.215 41.256 341.999 42.04C342.783 42.808 343.775 43.192 344.943 43.192ZM352.681 43V36.28H355.481V35.272H348.729V36.28H351.529V43H352.681ZM358.323 43L363.267 36.984V43H364.419V35.272H363.347L358.403 41.304V35.272H357.251V43H358.323ZM176.696 70C178.344 70 179.272 69.2 179.272 67.92C179.272 66.88 178.776 66.224 177.8 65.936C178.44 65.632 178.76 65.072 178.76 64.24C178.76 63.072 177.912 62.272 176.424 62.272H172.36V70H176.696ZM173.512 66.512H176.456C177.496 66.512 178.104 66.976 178.104 67.76C178.104 68.544 177.496 68.992 176.456 68.992H173.512V66.512ZM173.512 63.28H176.104C177.064 63.28 177.624 63.664 177.624 64.416C177.624 65.136 177.064 65.552 176.104 65.552H173.512V63.28ZM187.205 70V60.592L190.901 65.488H191.621L195.285 60.592V70H196.453V58.8H195.301L191.253 64.224L187.205 58.8H186.037V70H187.205ZM199.984 63.28C199.2 64.064 198.816 65.024 198.816 66.144C198.816 67.264 199.2 68.224 199.984 69.008C200.768 69.792 201.76 70.192 202.992 70.192C204.224 70.192 205.216 69.792 206 69.008C206.784 68.224 207.168 67.264 207.168 66.144C207.168 65.024 206.784 64.064 206 63.28C205.216 62.48 204.224 62.08 202.992 62.08C201.76 62.08 200.768 62.48 199.984 63.28ZM205.984 66.144C205.984 66.992 205.696 67.712 205.136 68.288C204.576 68.864 203.856 69.152 202.992 69.152C202.128 69.152 201.408 68.864 200.848 68.288C200.288 67.712 200 66.992 200 66.144C200 65.28 200.288 64.56 200.848 63.984C201.408 63.408 202.128 63.12 202.992 63.12C203.856 63.12 204.576 63.408 205.136 63.984C205.696 64.56 205.984 65.28 205.984 66.144ZM212.865 70.192C213.809 70.192 214.641 69.968 215.361 69.536V68.48C214.673 68.928 213.905 69.152 213.041 69.152C212.161 69.152 211.409 68.864 210.817 68.304C210.225 67.728 209.937 67.008 209.937 66.144C209.937 65.264 210.225 64.544 210.817 63.984C211.409 63.408 212.161 63.12 213.041 63.12C213.793 63.12 214.513 63.312 215.217 63.712V62.64C214.561 62.272 213.777 62.08 212.881 62.08C211.713 62.08 210.721 62.464 209.937 63.248C209.153 64.016 208.753 64.976 208.753 66.128C208.753 67.296 209.137 68.256 209.921 69.04C210.705 69.808 211.697 70.192 212.865 70.192ZM217.704 62.272V70H218.856V66.192L223.032 70H224.68L220.024 65.76L224.104 62.272H222.536L218.856 65.456V62.272H217.704ZM230.696 70C232.344 70 233.272 69.2 233.272 67.92C233.272 66.88 232.776 66.224 231.8 65.936C232.44 65.632 232.76 65.072 232.76 64.24C232.76 63.072 231.912 62.272 230.424 62.272H226.36V70H230.696ZM227.512 66.512H230.456C231.496 66.512 232.104 66.976 232.104 67.76C232.104 68.544 231.496 68.992 230.456 68.992H227.512V66.512ZM227.512 63.28H230.104C231.064 63.28 231.624 63.664 231.624 64.416C231.624 65.136 231.064 65.552 230.104 65.552H227.512V63.28ZM238.202 69.152C237.002 69.152 236.09 68.608 236.09 67.568C236.09 66.608 236.97 66.016 238.378 66.016C239.258 66.016 240.106 66.272 240.89 66.784V67.856C240.33 68.56 239.306 69.152 238.202 69.152ZM237.882 70.192C239.178 70.192 240.218 69.744 241.002 68.832C241.13 69.664 241.706 70.064 242.458 70.064C242.81 70.064 243.066 70 243.226 69.888V68.992C243.098 69.056 242.954 69.088 242.778 69.088C242.33 69.088 242.042 68.72 242.042 68.128V64.944C242.042 63.072 240.65 62.08 238.586 62.08C237.482 62.08 236.57 62.32 235.818 62.784V63.904C236.602 63.376 237.434 63.12 238.346 63.12C240.042 63.12 240.89 63.76 240.89 65.056V65.824C240.042 65.328 239.114 65.072 238.106 65.072C237.194 65.072 236.442 65.296 235.834 65.76C235.242 66.224 234.938 66.848 234.938 67.632C234.938 68.432 235.226 69.056 235.786 69.52C236.362 69.968 237.066 70.192 237.882 70.192ZM249.83 66.192V65.12H245.334V66.192H249.83ZM258.302 70.192C259.646 70.192 260.766 69.856 261.678 69.2V67.968C260.75 68.72 259.646 69.088 258.35 69.088C257.054 69.088 255.95 68.64 255.07 67.76C254.19 66.88 253.758 65.76 253.758 64.4C253.758 63.056 254.19 61.936 255.07 61.056C255.95 60.16 257.022 59.712 258.318 59.712C259.422 59.712 260.462 60.032 261.438 60.656V59.44C260.558 58.88 259.517 58.608 258.302 58.608C256.654 58.608 255.294 59.152 254.19 60.256C253.102 61.344 252.558 62.72 252.558 64.4C252.558 66.08 253.102 67.472 254.19 68.56C255.294 69.648 256.654 70.192 258.302 70.192ZM264.916 70L269.86 63.984V70H271.012V62.272H269.94L264.996 68.304V62.272H263.844V70H264.916ZM276.743 70V63.28H279.543V62.272H272.791V63.28H275.591V70H276.743ZM282.385 70L287.329 63.984V70H288.481V62.272H287.409L282.465 68.304V62.272H281.313V70H282.385Z" fill="black"/>
<path d="M0 110H3V32.9723L0 31V110Z" fill="url(#paint0_linear_1_201)"/>
<path d="M6 35V110H10V36.9651L6 35Z" fill="url(#paint1_linear_1_201)"/>
<path d="M12 39V110H15V40.9571L12 39Z" fill="url(#paint2_linear_1_201)"/>
<path d="M17 42V110H21V43.9774L17 42Z" fill="url(#paint3_linear_1_201)"/>
<path d="M24 46V110H27V47.9692L24.1 46H24Z" fill="url(#paint4_linear_1_201)"/>
<path d="M30 110H33V51.9601L30 50V110Z" fill="url(#paint5_linear_1_201)"/>
<path d="M36 110H39V55.9497L36 54V110Z" fill="url(#paint6_linear_1_201)"/>
<path d="M41 58V110H44V59.9379L41 58Z" fill="url(#paint7_linear_1_201)"/>
<path d="M47 61V110H51V62.9644L47 61Z" fill="url(#paint8_linear_1_201)"/>
<path d="M47 1.95455V86H51V0L47 1.95455Z" fill="url(#paint9_linear_1_201)"/>
<path d="M41 86H44V4L41 5.94723V86Z" fill="url(#paint10_linear_1_201)"/>
<path d="M36 86H39V8L36 9.93923V86Z" fill="url(#paint11_linear_1_201)"/>
<path d="M30 86H33V12H32.9L30 13.9304V86Z" fill="url(#paint12_linear_1_201)"/>
<path d="M24 86H27V15H26.9L24 16.9511V86Z" fill="url(#paint13_linear_1_201)"/>
<path d="M17 86H21V18L17 20.0772V86Z" fill="url(#paint14_linear_1_201)"/>
<path d="M12 86H15V22L12 24.068V86Z" fill="url(#paint15_linear_1_201)"/>
<path d="M6.00002 86H10V26L6.00002 28.0578V86Z" fill="url(#paint16_linear_1_201)"/>
<path d="M64.2063 28H71.0159C71.9444 28 72.7698 28.1075 73.4921 28.4301C74.2143 28.6452 74.7302 29.0753 75.246 29.5054C75.6587 29.9355 76.0714 30.4731 76.2778 31.1183C76.4841 31.7634 76.5873 32.4086 76.5873 33.1613C76.5873 34.0215 76.381 34.7742 75.9683 35.5269C75.5556 36.2796 74.9365 36.9247 73.9048 37.4624C74.5238 37.6774 75.0397 38 75.4524 38.4301C75.8651 38.8602 76.1746 39.2903 76.381 39.7204C76.5873 40.1505 76.7937 40.6882 76.8968 41.2258C77 41.7634 77 42.1935 77 42.5161C77 43.3763 76.8968 44.0215 76.5873 44.7742C76.2778 45.5269 75.8651 46.0645 75.4524 46.4946C74.9365 46.9247 74.4206 47.3548 73.6984 47.5699C73.0794 47.7849 72.3571 48 71.6349 48H64V28H64.2063ZM74.2143 33.2688C74.2143 32.3011 73.9048 31.4409 73.3889 30.7957C72.7698 30.1505 71.8413 29.828 70.5 29.828H66.4762V36.4946H70.5C71.7381 36.4946 72.6667 36.172 73.2857 35.6344C73.9048 35.0968 74.2143 34.3441 74.2143 33.2688ZM74.8333 42.3011C74.8333 41.871 74.7302 41.3333 74.627 40.9032C74.4206 40.4731 74.2143 40.043 73.9048 39.7204C73.5952 39.3978 73.1825 39.0753 72.6667 38.8602C72.1508 38.6452 71.6349 38.5376 71.0159 38.5376H66.5794V46.0645H71.0159C71.7381 46.0645 72.254 45.957 72.7698 45.7419C73.2857 45.5269 73.6984 45.3118 73.9048 44.8817C74.2143 44.5591 74.4206 44.129 74.5238 43.6989C74.7302 43.2688 74.8333 42.7312 74.8333 42.3011Z" fill="black"/>
<path d="M84 48H81V27H84V48Z" fill="black"/>
<path d="M91 29.5556C91 30 90.8966 30.3333 90.5862 30.6667C90.2759 31 89.9655 31.1111 89.4483 31.1111C89.0345 31.1111 88.7241 31 88.4138 30.6667C88.1034 30.3333 88 30 88 29.5556C88 29.1111 88.1034 28.6667 88.4138 28.4444C88.7241 28.1111 89.0345 28 89.4483 28C89.8621 28 90.2759 28.1111 90.5862 28.4444C90.8966 28.7778 91 29.1111 91 29.5556ZM88.3103 48V33.3333H90.5862V48H88.3103Z" fill="black"/>
<path d="M98.0909 30V33.6H102.182V35.3455H98.0909V43.8545C98.0909 44.5091 98.1932 45.0545 98.5 45.4909C98.7045 45.9273 99.2159 46.1455 100.034 46.1455C100.648 46.1455 101.466 45.9273 102.591 45.6L103 47.2364C102.489 47.4545 101.977 47.6727 101.364 47.7818C100.75 47.8909 100.239 48 99.625 48C97.1705 48 95.9432 46.8 95.9432 44.5091V35.2364H94V33.9273L96.0455 33.2727L96.7614 30.1091L98.0909 30Z" fill="black"/>
<path d="M108.314 46.303H117V48H105V46.5152L113.457 35.9091L113.343 35.697H105.914V34H116.657V35.4848L108.314 46.0909V46.303Z" fill="black"/>
<path d="M64 73.8925V54H75.5862V55.9355H66.2759V62.4946H74.1379V64.3226H66.2759V72.0645H76V74H64V73.8925Z" fill="black"/>
<path d="M80.8889 71.3235C81.7778 71.7353 82.6667 71.9412 83.4444 72.0441C84.2222 72.1471 84.8889 72.25 85.4444 72.25C85.8889 72.25 86.3333 72.25 86.7778 72.1471C87.2222 72.0441 87.5556 71.9412 87.8889 71.7353C88.2222 71.5294 88.4444 71.3235 88.5556 71.1176C88.7778 70.8088 88.7778 70.5 88.7778 70.0882C88.7778 69.7794 88.6667 69.4706 88.5556 69.1618C88.3333 68.9559 88.1111 68.6471 87.8889 68.5441C87.5556 68.3382 87.2222 68.2353 86.8889 68.1324C86.5556 68.0294 86.1111 67.8235 85.6667 67.7206C85 67.5147 84.4444 67.3088 83.7778 67.1029C83.2222 66.8971 82.6667 66.6912 82.2222 66.3824C81.7778 66.0735 81.4444 65.7647 81.1111 65.3529C80.7778 64.9412 80.6667 64.4265 80.6667 63.8088C80.6667 63.1912 80.7778 62.5735 81.1111 62.1618C81.4444 61.75 81.7778 61.2353 82.2222 60.9265C82.6667 60.6176 83.2222 60.4118 83.8889 60.2059C84.5556 60.1029 85.2222 60 86 60C86.3333 60 86.6667 60 87 60.1029C87.3333 60.1029 87.7778 60.2059 88.1111 60.3088C88.5556 60.4118 88.8889 60.5147 89.2222 60.6176C89.5556 60.7206 90 60.9265 90.2222 61.0294L89.4445 62.5735C88.6667 62.2647 88 62.0588 87.4444 61.9559C86.8889 61.8529 86.3333 61.8529 85.7778 61.8529C85.4444 61.8529 85 61.8529 84.6667 61.9559C84.3333 62.0588 84 62.1618 83.7778 62.2647C83.5556 62.4706 83.3333 62.6765 83.1111 62.8824C82.8889 63.1912 82.8889 63.5 82.8889 63.8088C82.8889 64.1176 83 64.3235 83.2222 64.5294C83.4444 64.7353 83.6667 64.9412 84 65.1471C84.3333 65.3529 84.6667 65.4559 85 65.5588C85.3333 65.6618 85.6667 65.7647 86 65.8676C86.6667 66.0735 87.2222 66.2794 87.7778 66.4853C88.3333 66.6912 88.8889 66.8971 89.4445 67.2059C89.8889 67.5147 90.3333 67.9265 90.5556 68.3382C90.8889 68.75 91 69.3676 91 70.0882C91 70.8088 90.8889 71.3235 90.5556 71.8382C90.2222 72.3529 89.8889 72.7647 89.3333 73.0735C88.7778 73.3824 88.2222 73.5882 87.5556 73.7941C86.8889 73.8971 86.1111 74 85.2222 74C84.7778 74 84.3333 74 83.8889 73.8971C83.4444 73.8971 83 73.7941 82.4444 73.6912C82 73.5882 81.5556 73.4853 81.1111 73.3824C80.6667 73.2794 80.3333 73.0735 80 72.9706L80.8889 71.3235Z" fill="black"/>
<path d="M97.1461 57V60.4H101.191V62.0485H97.1461V70.0848C97.1461 70.703 97.2472 71.2182 97.5506 71.6303C97.7528 72.0424 98.2584 72.2485 99.0674 72.2485C99.6742 72.2485 100.483 72.0424 101.596 71.7333L102 73.2788C101.494 73.4848 100.989 73.6909 100.382 73.7939C99.7753 73.897 99.2697 74 98.6629 74C96.236 74 95.0225 72.8667 95.0225 70.703V61.9455H93V60.7091L95.0225 60.0909L95.7303 57.103L97.1461 57Z" fill="black"/>
<path d="M114.889 72.0441H116.889L117 73.3824C116.667 73.5882 116.222 73.6912 115.778 73.7941C115.333 73.8971 114.889 73.8971 114.444 73.8971C113.889 73.8971 113.444 73.7941 113.111 73.5882C112.778 73.3824 112.667 72.8677 112.556 72.25C112 72.6618 111.444 73.0735 110.889 73.2794C110.333 73.4853 109.889 73.6912 109.444 73.7941C109 73.8971 108.667 74 108.222 74C107.889 74 107.556 74 107.333 74C106.444 74 105.778 73.8971 105.222 73.5882C104.667 73.2794 104.222 72.9706 103.889 72.6618C103.556 72.25 103.333 71.8382 103.222 71.4265C103.111 71.0147 103 70.6029 103 70.1912C103 68.9559 103.444 68.0294 104.333 67.3088C105.222 66.5882 106.667 66.1765 108.556 66.0735L112.333 65.8676V65.0441C112.333 63.9118 112.111 63.0882 111.667 62.6765C111.222 62.2647 110.444 61.9559 109.222 61.9559C108.556 61.9559 107.778 62.0588 107 62.1618C106.222 62.2647 105.444 62.4706 104.667 62.6765L104.333 61.1324C105.222 60.8235 106.111 60.5147 107.111 60.3088C108.111 60.1029 109.111 60 110 60C111.556 60 112.778 60.3088 113.667 61.0294C114.556 61.6471 115 62.8824 115 64.5294V72.0441H114.889ZM108.778 67.5147C107.778 67.5147 107 67.8235 106.556 68.2353C106.111 68.6471 105.889 69.2647 105.889 69.8824C105.889 70.7059 106.111 71.2206 106.556 71.6323C107 72.0441 107.667 72.25 108.667 72.25C109.333 72.25 110 72.1471 110.667 71.8382C111.333 71.5294 112 71.1176 112.667 70.5V67.3088L108.778 67.5147Z" fill="black"/>
<path d="M122.091 57V60.4H126.182V62.0485H122.091V70.0848C122.091 70.703 122.193 71.2182 122.5 71.6303C122.705 72.0424 123.216 72.2485 124.034 72.2485C124.648 72.2485 125.466 72.0424 126.591 71.7333L127 73.2788C126.489 73.4848 125.977 73.6909 125.364 73.7939C124.75 73.897 124.239 74 123.625 74C121.17 74 119.943 72.8667 119.943 70.703V61.9455H118V60.7091L120.045 60.0909L120.761 57.103L122.091 57Z" fill="black"/>
<path d="M135.27 60C136.243 60 137 60.1087 137.649 60.4348C138.297 60.6522 138.838 60.9783 139.27 61.413C139.703 61.8478 140.027 62.2826 140.243 62.8261C140.459 63.3696 140.676 63.8043 140.784 64.3478C140.892 64.8913 141 65.3261 141 65.7609C141 66.1957 141 66.6304 141 66.8478V68.0435H131.486C131.486 68.6957 131.595 69.3478 131.703 70C131.811 70.6522 132.027 71.087 132.351 71.6304C132.676 72.0652 133.108 72.5 133.649 72.7174C134.189 73.0435 134.838 73.1522 135.595 73.1522C136.459 73.1522 137.216 73.0435 137.865 72.9348C138.514 72.7174 139.27 72.5 140.135 72.1739L140.676 73.6957C139.811 74.1304 138.946 74.4565 138.081 74.6739C137.216 74.8913 136.351 75 135.378 75C134.081 75 133.108 74.7826 132.243 74.4565C131.378 74.0217 130.73 73.587 130.297 72.9348C129.865 72.2826 129.541 71.5217 129.324 70.6522C129.108 69.7826 129 68.8043 129 67.8261C129 67.3913 129 66.9565 129.108 66.413C129.216 65.8696 129.324 65.3261 129.432 64.7826C129.649 64.2391 129.865 63.6957 130.081 63.1522C130.405 62.6087 130.73 62.1739 131.27 61.7391C131.703 61.3044 132.243 60.9783 133 60.7609C133.649 60.2174 134.405 60 135.27 60ZM135.378 61.8478C134.73 61.8478 134.081 61.9565 133.649 62.2826C133.216 62.5 132.784 62.8261 132.459 63.2609C132.135 63.6957 131.919 64.2391 131.811 64.7826C131.703 65.3261 131.595 65.9783 131.486 66.5217H138.73C138.73 65.8696 138.622 65.2174 138.514 64.6739C138.405 64.1304 138.189 63.587 137.973 63.1522C137.757 62.7174 137.324 62.3913 136.892 62.1739C136.568 61.9565 136.027 61.8478 135.378 61.8478Z" fill="black"/>
<defs>
<linearGradient id="paint0_linear_1_201" x1="1.4776" y1="103.399" x2="1.4776" y2="34.8479" gradientUnits="userSpaceOnUse">
<stop stop-opacity="0"/>
<stop offset="0.2918" stop-opacity="0.2918"/>
<stop offset="0.6317" stop-opacity="0.6317"/>
<stop offset="0.8767" stop-opacity="0.8767"/>
<stop offset="1"/>
</linearGradient>
<linearGradient id="paint1_linear_1_201" x1="8.01669" y1="110.213" x2="8.01669" y2="47.1817" gradientUnits="userSpaceOnUse">
<stop stop-color="white" stop-opacity="0"/>
<stop offset="0.2918" stop-color="#BCBCBD" stop-opacity="0.2918"/>
<stop offset="0.6317" stop-color="#757576" stop-opacity="0.6317"/>
<stop offset="0.8767" stop-color="#484849" stop-opacity="0.8767"/>
<stop offset="1" stop-color="#373738"/>
</linearGradient>
<linearGradient id="paint2_linear_1_201" x1="13.4966" y1="111.298" x2="13.4966" y2="48.8745" gradientUnits="userSpaceOnUse">
<stop stop-color="white" stop-opacity="0"/>
<stop offset="0.2918" stop-color="#BCBCBD" stop-opacity="0.2918"/>
<stop offset="0.6317" stop-color="#757576" stop-opacity="0.6317"/>
<stop offset="0.8767" stop-color="#484849" stop-opacity="0.8767"/>
<stop offset="1" stop-color="#373738"/>
</linearGradient>
<linearGradient id="paint3_linear_1_201" x1="18.9732" y1="109.302" x2="18.9732" y2="48.9237" gradientUnits="userSpaceOnUse">
<stop stop-color="white" stop-opacity="0"/>
<stop offset="0.2918" stop-color="#BCBCBD" stop-opacity="0.2918"/>
<stop offset="0.6317" stop-color="#757576" stop-opacity="0.6317"/>
<stop offset="0.8767" stop-color="#484849" stop-opacity="0.8767"/>
<stop offset="1" stop-color="#373738"/>
</linearGradient>
<linearGradient id="paint4_linear_1_201" x1="25.5145" y1="110.75" x2="25.5145" y2="48.1909" gradientUnits="userSpaceOnUse">
<stop stop-color="white" stop-opacity="0"/>
<stop offset="0.2918" stop-color="#BCBCBD" stop-opacity="0.2918"/>
<stop offset="0.6317" stop-color="#757576" stop-opacity="0.6317"/>
<stop offset="0.8767" stop-color="#484849" stop-opacity="0.8767"/>
<stop offset="1" stop-color="#373738"/>
</linearGradient>
<linearGradient id="paint5_linear_1_201" x1="31.499" y1="111.454" x2="31.499" y2="52.7784" gradientUnits="userSpaceOnUse">
<stop stop-color="white" stop-opacity="0"/>
<stop offset="0.2918" stop-color="#BCBCBD" stop-opacity="0.2918"/>
<stop offset="0.6317" stop-color="#757576" stop-opacity="0.6317"/>
<stop offset="0.8767" stop-color="#484849" stop-opacity="0.8767"/>
<stop offset="1" stop-color="#373738"/>
</linearGradient>
<linearGradient id="paint6_linear_1_201" x1="37.4836" y1="110.732" x2="37.4836" y2="55.8453" gradientUnits="userSpaceOnUse">
<stop stop-color="white" stop-opacity="0"/>
<stop offset="0.2918" stop-color="#BCBCBD" stop-opacity="0.2918"/>
<stop offset="0.6317" stop-color="#757576" stop-opacity="0.6317"/>
<stop offset="0.8767" stop-color="#484849" stop-opacity="0.8767"/>
<stop offset="1" stop-color="#373738"/>
</linearGradient>
<linearGradient id="paint7_linear_1_201" x1="42.5181" y1="110.361" x2="42.5181" y2="59.5521" gradientUnits="userSpaceOnUse">
<stop stop-color="white" stop-opacity="0"/>
<stop offset="0.2918" stop-color="#BCBCBD" stop-opacity="0.2918"/>
<stop offset="0.6317" stop-color="#757576" stop-opacity="0.6317"/>
<stop offset="0.8767" stop-color="#484849" stop-opacity="0.8767"/>
<stop offset="1" stop-color="#373738"/>
</linearGradient>
<linearGradient id="paint8_linear_1_201" x1="49.0019" y1="109.68" x2="49.0019" y2="65.6946" gradientUnits="userSpaceOnUse">
<stop stop-color="white" stop-opacity="0"/>
<stop offset="0.2918" stop-color="#BCBCBD" stop-opacity="0.2918"/>
<stop offset="0.6317" stop-color="#757576" stop-opacity="0.6317"/>
<stop offset="0.8767" stop-color="#484849" stop-opacity="0.8767"/>
<stop offset="1" stop-color="#373738"/>
</linearGradient>
<linearGradient id="paint9_linear_1_201" x1="49.0157" y1="46.3594" x2="49.0157" y2="-18.9178" gradientUnits="userSpaceOnUse">
<stop stop-color="white" stop-opacity="0"/>
<stop offset="0.1146" stop-color="#0670EB" stop-opacity="0.1146"/>
<stop offset="0.2866" stop-color="#0670EB" stop-opacity="0.2866"/>
<stop offset="0.4541" stop-color="#0670EB" stop-opacity="0.4541"/>
<stop offset="0.613" stop-color="#0670EB" stop-opacity="0.613"/>
<stop offset="0.7611" stop-color="#0670EB" stop-opacity="0.7611"/>
<stop offset="0.8943" stop-color="#0670EB" stop-opacity="0.8943"/>
<stop offset="1" stop-color="#0670EB"/>
</linearGradient>
<linearGradient id="paint10_linear_1_201" x1="42.5118" y1="48.2031" x2="42.5118" y2="-14.0379" gradientUnits="userSpaceOnUse">
<stop stop-color="white" stop-opacity="0"/>
<stop offset="0.1146" stop-color="#0670EB" stop-opacity="0.1146"/>
<stop offset="0.2866" stop-color="#0670EB" stop-opacity="0.2866"/>
<stop offset="0.4541" stop-color="#0670EB" stop-opacity="0.4541"/>
<stop offset="0.613" stop-color="#0670EB" stop-opacity="0.613"/>
<stop offset="0.7611" stop-color="#0670EB" stop-opacity="0.7611"/>
<stop offset="0.8943" stop-color="#0670EB" stop-opacity="0.8943"/>
<stop offset="1" stop-color="#0670EB"/>
</linearGradient>
<linearGradient id="paint11_linear_1_201" x1="37.5118" y1="50.0469" x2="37.5118" y2="-9.15803" gradientUnits="userSpaceOnUse">
<stop stop-color="white" stop-opacity="0"/>
<stop offset="0.1146" stop-color="#0670EB" stop-opacity="0.1146"/>
<stop offset="0.2866" stop-color="#0670EB" stop-opacity="0.2866"/>
<stop offset="0.4541" stop-color="#0670EB" stop-opacity="0.4541"/>
<stop offset="0.613" stop-color="#0670EB" stop-opacity="0.613"/>
<stop offset="0.7611" stop-color="#0670EB" stop-opacity="0.7611"/>
<stop offset="0.8943" stop-color="#0670EB" stop-opacity="0.8943"/>
<stop offset="1" stop-color="#0670EB"/>
</linearGradient>
<linearGradient id="paint12_linear_1_201" x1="31.5118" y1="51.8906" x2="31.5118" y2="-4.27813" gradientUnits="userSpaceOnUse">
<stop stop-color="white" stop-opacity="0"/>
<stop offset="0.1146" stop-color="#0670EB" stop-opacity="0.1146"/>
<stop offset="0.2866" stop-color="#0670EB" stop-opacity="0.2866"/>
<stop offset="0.4541" stop-color="#0670EB" stop-opacity="0.4541"/>
<stop offset="0.613" stop-color="#0670EB" stop-opacity="0.613"/>
<stop offset="0.7611" stop-color="#0670EB" stop-opacity="0.7611"/>
<stop offset="0.8943" stop-color="#0670EB" stop-opacity="0.8943"/>
<stop offset="1" stop-color="#0670EB"/>
</linearGradient>
<linearGradient id="paint13_linear_1_201" x1="25.5118" y1="53.2734" x2="25.5118" y2="-0.618206" gradientUnits="userSpaceOnUse">
<stop stop-color="white" stop-opacity="0"/>
<stop offset="0.1146" stop-color="#0670EB" stop-opacity="0.1146"/>
<stop offset="0.2866" stop-color="#0670EB" stop-opacity="0.2866"/>
<stop offset="0.4541" stop-color="#0670EB" stop-opacity="0.4541"/>
<stop offset="0.613" stop-color="#0670EB" stop-opacity="0.613"/>
<stop offset="0.7611" stop-color="#0670EB" stop-opacity="0.7611"/>
<stop offset="0.8943" stop-color="#0670EB" stop-opacity="0.8943"/>
<stop offset="1" stop-color="#0670EB"/>
</linearGradient>
<linearGradient id="paint14_linear_1_201" x1="19.0157" y1="54.6563" x2="19.0157" y2="3.04172" gradientUnits="userSpaceOnUse">
<stop stop-color="white" stop-opacity="0"/>
<stop offset="0.1146" stop-color="#0670EB" stop-opacity="0.1146"/>
<stop offset="0.2866" stop-color="#0670EB" stop-opacity="0.2866"/>
<stop offset="0.4541" stop-color="#0670EB" stop-opacity="0.4541"/>
<stop offset="0.613" stop-color="#0670EB" stop-opacity="0.613"/>
<stop offset="0.7611" stop-color="#0670EB" stop-opacity="0.7611"/>
<stop offset="0.8943" stop-color="#0670EB" stop-opacity="0.8943"/>
<stop offset="1" stop-color="#0670EB"/>
</linearGradient>
<linearGradient id="paint15_linear_1_201" x1="13.5118" y1="56.5" x2="13.5118" y2="7.92162" gradientUnits="userSpaceOnUse">
<stop stop-color="white" stop-opacity="0"/>
<stop offset="0.1146" stop-color="#0670EB" stop-opacity="0.1146"/>
<stop offset="0.2866" stop-color="#0670EB" stop-opacity="0.2866"/>
<stop offset="0.4541" stop-color="#0670EB" stop-opacity="0.4541"/>
<stop offset="0.613" stop-color="#0670EB" stop-opacity="0.613"/>
<stop offset="0.7611" stop-color="#0670EB" stop-opacity="0.7611"/>
<stop offset="0.8943" stop-color="#0670EB" stop-opacity="0.8943"/>
<stop offset="1" stop-color="#0670EB"/>
</linearGradient>
<linearGradient id="paint16_linear_1_201" x1="8.01574" y1="52.5" x2="8.01574" y2="12.8015" gradientUnits="userSpaceOnUse">
<stop stop-color="white" stop-opacity="0"/>
<stop offset="0.7611" stop-color="#0670EB" stop-opacity="0.7611"/>
<stop offset="0.8943" stop-color="#0670EB" stop-opacity="0.8943"/>
<stop offset="1" stop-color="#0670EB"/>
</linearGradient>
</defs>
</svg>
